<svg xmlns="http://www.w3.org/2000/svg" width="34" height="34" viewBox="0 0 34 34">
    <path d="M4.98 34h11.09V21.914h-3.984V17.93h3.984v-4.98a4.986 4.986 0 0 1 4.98-4.98h4.98v3.984h-3.983a1.994 1.994 0 0 0-1.992 1.992v3.984h5.8l-.664 3.984h-5.136V34h8.965A4.986 4.986 0 0 0 34 29.02V4.98A4.986 4.986 0 0 0 29.02 0H4.98A4.986 4.986 0 0 0 0 4.98v24.04A4.986 4.986 0 0 0 4.98 34zM1.992 4.98A2.992 2.992 0 0 1 4.98 1.992h24.04a2.992 2.992 0 0 1 2.988 2.988v24.04a2.992 2.992 0 0 1-2.988 2.988h-6.973v-8.1h4.828l1.325-7.97h-6.153v-1.993h5.977V5.977h-6.973a6.98 6.98 0 0 0-6.973 6.973v2.988h-3.984v7.969h3.984v8.1H4.98a2.992 2.992 0 0 1-2.988-2.987zm0 0" data-name="facebook (1)"/>
</svg>
