<svg xmlns="http://www.w3.org/2000/svg" id="img_1" width="140.469" height="152.469" viewBox="0 0 140.469 152.469">
    <defs>
        <style>
            .cls-1{fill:rgba(43,0,214,.3)}.cls-2{fill:#fff}.cls-3{fill:#ec008c}.cls-4{fill:#c4d600}.cls-5{fill:#b61f28}.cls-6{filter:url(#Rectangle_74)}.cls-7{filter:url(#Polygon_1)}.cls-8{filter:url(#Rectangle_75)}
        </style>
        <filter id="Rectangle_75" width="32.983" height="25.492" x="53.743" y="113.867" filterUnits="userSpaceOnUse">
            <feOffset dy="3"/>
            <feGaussianBlur result="blur" stdDeviation="3"/>
            <feFlood flood-opacity=".161"/>
            <feComposite in2="blur" operator="in"/>
            <feComposite in="SourceGraphic"/>
        </filter>
        <filter id="Polygon_1" width="47.967" height="31.11" x="46.251" y="121.359" filterUnits="userSpaceOnUse">
            <feOffset dy="3"/>
            <feGaussianBlur result="blur-2" stdDeviation="3"/>
            <feFlood flood-opacity=".161"/>
            <feComposite in2="blur-2" operator="in"/>
            <feComposite in="SourceGraphic"/>
        </filter>
        <filter id="Rectangle_74" width="123.436" height="123.436" x="8.985" y="11.985" filterUnits="userSpaceOnUse">
            <feOffset dy="3"/>
            <feGaussianBlur result="blur-3" stdDeviation="3"/>
            <feFlood flood-opacity=".122"/>
            <feComposite in2="blur-3" operator="in"/>
            <feComposite in="SourceGraphic"/>
        </filter>
    </defs>
    <circle id="Ellipse_6" cx="70.234" cy="70.234" r="70.234" class="cls-1" data-name="Ellipse 6"/>
    <g class="cls-8">
        <path id="Rectangle_75-2" d="M0 0h14.983v7.492H0z" class="cls-1" data-name="Rectangle 75" transform="translate(62.74 119.87)"/>
    </g>
    <g class="cls-7">
        <path id="Polygon_1-2" d="M14.983 0l14.984 13.11H0z" class="cls-1" data-name="Polygon 1" transform="rotate(180 42.61 70.235)"/>
    </g>
    <g id="Group_52" data-name="Group 52" transform="translate(17.985 17.985)">
        <g class="cls-6" transform="translate(-17.98 -17.98)">
            <rect id="Rectangle_74-2" width="105.436" height="105.436" class="cls-2" data-name="Rectangle 74" rx="28" transform="translate(17.98 17.98)"/>
        </g>
        <g id="KOKO_Bank" data-name="KOKO Bank" transform="translate(2.214 20.873)">
            <g id="Group_4" data-name="Group 4">
                <path id="Path_1" d="M-4-149.319a25.455 25.455 0 0 1 6.039-16.489 32.71 32.71 0 0 0-22.739-9.141A32.64 32.64 0 0 0-53.424-142.4 32.64 32.64 0 0 0-20.7-109.845a32.745 32.745 0 0 0 29.067-17.573A25.6 25.6 0 0 1-4-149.319z" class="cls-3" data-name="Path 1" transform="translate(53.424 174.963)"/>
                <path id="Path_2" d="M186.334-175a25.782 25.782 0 0 0-19.744 9.154 32.371 32.371 0 0 1 9.991 23.411 32.269 32.269 0 0 1-3.665 14.979 25.765 25.765 0 0 0 13.419 3.743 25.714 25.714 0 0 0 25.783-25.644A25.714 25.714 0 0 0 186.334-175z" class="cls-4" data-name="Path 2" transform="translate(-111.124 175.003)"/>
                <path id="Path_3" d="M148.676-138.493A25.457 25.457 0 0 0 142.637-122 25.6 25.6 0 0 0 155-100.1a32.268 32.268 0 0 0 3.665-14.979 32.37 32.37 0 0 0-9.989-23.414z" class="cls-5" data-name="Path 3" transform="translate(-93.21 147.648)"/>
                <g id="Group_3" data-name="Group 3" transform="translate(2.458 15.412)">
                    <g id="Group_1" data-name="Group 1" transform="translate(0 9.228)">
                        <path id="Path_4" d="M-38.531-66.282A2.288 2.288 0 0 0-41.5-68.4a2.287 2.287 0 0 0-2.118 2.963l2.495 15.137a2.26 2.26 0 0 0 2.939 2.1 2.291 2.291 0 0 0 2.135-2.941z" class="cls-4" data-name="Path 4" transform="translate(43.676 70.533)"/>
                        <path id="Path_5" d="M-.938-59.42A4.1 4.1 0 0 0-2.7-61.713c-.811-.611-5.394-4.238-5.474-4.3.055-.084 3.236-4.976 3.808-5.813a4.085 4.085 0 0 0 .931-2.732 2.478 2.478 0 0 0-2.958-2.135 2.861 2.861 0 0 0-2.2 1.583c-.387.67-4.289 7.153-4.72 7.876a3.409 3.409 0 0 0 .66 4.007c.611.532 6.418 5.455 7 5.966a2.869 2.869 0 0 0 2.59.8A2.466 2.466 0 0 0-.938-59.42z" class="cls-4" data-name="Path 5" transform="translate(21.249 76.732)"/>
                    </g>
                    <g id="Group_2" data-name="Group 2" transform="translate(19.983)">
                        <path id="Path_6" d="M56.163-75.546a10.262 10.262 0 0 1-10.44 10.077 10.259 10.259 0 0 1-10.132-10.385 10.261 10.261 0 0 1 10.441-10.077 10.257 10.257 0 0 1 10.131 10.385z" class="cls-4" data-name="Path 6" transform="translate(-35.59 92.853)"/>
                        <ellipse id="Ellipse_1" cx="10.287" cy="10.232" class="cls-2" data-name="Ellipse 1" rx="10.287" ry="10.232" transform="translate(42.482)"/>
                        <path id="Path_7" d="M129.979-93.884l2.482 15.145a2.291 2.291 0 0 1-2.135 2.941 2.26 2.26 0 0 1-2.939-2.1l-2.494-15.144A2.287 2.287 0 0 1 127.011-96a2.288 2.288 0 0 1 2.968 2.116z" class="cls-2" data-name="Path 7" transform="translate(-102.336 100.442)"/>
                        <path id="Path_8" d="M160.338-93.617s4.66 3.686 5.478 4.3a4.1 4.1 0 0 1 1.759 2.293 2.466 2.466 0 0 1-2.119 2.962 2.87 2.87 0 0 1-2.59-.8c-.582-.512-6.389-5.434-7-5.967a3.41 3.41 0 0 1-.66-4.007c.432-.723 4.333-7.206 4.721-7.875a2.86 2.86 0 0 1 2.2-1.583 2.477 2.477 0 0 1 2.958 2.135 4.081 4.081 0 0 1-.931 2.732c-.577.844-3.811 5.817-3.811 5.817" class="cls-2" data-name="Path 8" transform="translate(-124.764 106.64)"/>
                    </g>
                </g>
            </g>
        </g>
    </g>
</svg>
