<svg xmlns="http://www.w3.org/2000/svg" width="180.664" height="178.9" viewBox="0 0 180.664 178.9">
    <path d="M180.664 12.044A12.056 12.056 0 0 0 168.62 0H12.044a12.019 12.019 0 0 0-3.011 23.661v146.206l9.033-9.033L36.132 178.9 54.2 160.834 72.266 178.9l18.066-18.066L108.4 178.9l18.066-18.066 18.066 18.066 18.068-18.066 9.033 9.033V23.661a12.031 12.031 0 0 0 9.031-11.617zm-15.055 143.285l-3.011-3.011-18.066 18.066-18.066-18.066-18.066 18.067-18.068-18.067-18.066 18.067L54.2 152.318l-18.067 18.067-18.067-18.067-3.011 3.011V15.055h150.554v140.274zm6.022-138.073V9.033H9.033v8.223a6.02 6.02 0 0 1 3.011-11.234H168.62a6.02 6.02 0 0 1 3.011 11.234z" data-name="Path 45"/>
    <path d="M89.882 48.624h51.571v7.367H89.882z" data-name="Rectangle 81"/>
    <path d="M89.882 70.727h51.571v7.367H89.882z" data-name="Rectangle 82"/>
    <path d="M89.882 91.355h51.571v7.367H89.882z" data-name="Rectangle 83"/>
    <path d="M89.882 111.984h51.571v7.367H89.882z" data-name="Rectangle 84"/>
</svg>
