<svg xmlns="http://www.w3.org/2000/svg" id="img_3" width="140.469" height="140.469" viewBox="0 0 140.469 140.469">
    <defs>
        <style>
            .cls-1{fill:rgba(43,0,214,.3)}.cls-2{fill:#ec008c;opacity:.8}.cls-3{fill:#c4d600}.cls-10,.cls-4,.cls-6,.cls-8{fill:none}.cls-4,.cls-6{stroke:#000;stroke-miterlimit:10}.cls-4{stroke-width:2px}.cls-5,.cls-7{fill:#fff}.cls-7{font-size:16px;font-family:SegoeUI-SemiboldItalic,Segoe UI;font-weight:600;font-style:italic}.cls-8{stroke:#fff;stroke-width:4px}.cls-9{stroke:none}
        </style>
    </defs>
    <circle id="Ellipse_8" cx="70.234" cy="70.234" r="70.234" class="cls-1" data-name="Ellipse 8"/>
    <rect id="Rectangle_67" width="108.295" height="67.039" class="cls-2" data-name="Rectangle 67" rx="9" transform="translate(19.855 43.229)"/>
    <g id="Group_48" data-name="Group 48" transform="translate(16.899 39.936)">
        <path id="Path_42" d="M12.789 0h4.3A12.789 12.789 0 0 1 29.88 12.789v4.9a12.789 12.789 0 0 1-12.79 12.787h-4.3A12.789 12.789 0 0 1 0 17.686v-4.9A12.789 12.789 0 0 1 12.789 0z" class="cls-3" data-name="Path 42" transform="translate(11.016 6.075)"/>
        <g id="Group_44" data-name="Group 44" transform="translate(16.717 18.975)">
            <g id="Group_43" data-name="Group 43" transform="translate(7.971 .298)">
                <g id="Group_42" data-name="Group 42">
                    <path id="Path_36" d="M370.082 74.877v3.529h-2.044v-2.08c0-4.931-3.126-9-8.164-9.6a9.487 9.487 0 0 1 7.587 2.329 7.9 7.9 0 0 1 2.621 5.822z" data-name="Path 36" transform="translate(-359.874 -66.642)"/>
                </g>
            </g>
            <path id="Path_37" d="M364.977 74.675a8.16 8.16 0 0 0-2.717-6.04 9.575 9.575 0 0 0-6.521-2.493 9.712 9.712 0 0 0-1.264.083h-.039a8.814 8.814 0 0 0-7.931 8.445v3.9h16.433v-.008l2.044.008zm-10.5-7.85c4.705.581 7.864 4.312 7.864 9.3v1.782H347.1v-3.232a8.214 8.214 0 0 1 7.373-7.85zm9.908 11.081h-1.448v-1.782a9.533 9.533 0 0 0-6.036-9.307 8.88 8.88 0 0 1 4.959 2.256 7.573 7.573 0 0 1 2.525 5.6z" data-name="Path 37" transform="translate(-346.5 -66.142)"/>
        </g>
        <path id="Path_38" d="M356.885 47.555c-.109 0-.222-.01-.331-.01s-.222 0-.331.01a7.4 7.4 0 0 0 0 14.794c.108 0 .222.01.331.01s.222 0 .331-.01a7.4 7.4 0 0 0 0-14.794z" class="cls-3" data-name="Path 38" transform="translate(-330.852 -39.655)"/>
        <rect id="Rectangle_54" width="108.209" height="67.582" class="cls-4" data-name="Rectangle 54" rx="11.086"/>
        <path id="Rectangle_55" d="M0 0h26.665v1.318H0z" data-name="Rectangle 55" transform="translate(12.404 42.01)"/>
        <path id="Rectangle_56" d="M0 0h26.665v1.318H0z" data-name="Rectangle 56" transform="translate(12.404 44.645)"/>
        <path id="Rectangle_57" d="M0 0h26.665v1.318H0z" data-name="Rectangle 57" transform="translate(12.404 47.28)"/>
        <path id="Rectangle_58" d="M0 0h26.665v1.318H0z" data-name="Rectangle 58" transform="translate(12.404 49.915)"/>
        <path id="Rectangle_59" d="M0 0h52.572v1.295H0z" data-name="Rectangle 59" transform="translate(48.454 16.38)"/>
        <path id="Rectangle_60" d="M0 0h52.572v1.295H0z" data-name="Rectangle 60" transform="translate(48.454 18.971)"/>
        <path id="Rectangle_61" d="M0 0h52.572v1.295H0z" data-name="Rectangle 61" transform="translate(48.454 21.561)"/>
        <path id="Rectangle_62" d="M0 0h52.572v1.295H0z" data-name="Rectangle 62" transform="translate(48.454 24.151)"/>
        <path id="Rectangle_63" d="M0 0h2.735v6.634H0z" class="cls-5" data-name="Rectangle 63" transform="translate(48.019 55.17)"/>
        <path id="Rectangle_64" d="M0 0h.908v6.634H0z" class="cls-5" data-name="Rectangle 64" transform="translate(53.851 55.17)"/>
        <path id="Rectangle_68" d="M0 0h.908v6.634H0z" class="cls-5" data-name="Rectangle 68" transform="translate(55.678 55.17)"/>
        <path id="Rectangle_65" d="M0 0h2.735v6.634H0z" class="cls-5" data-name="Rectangle 65" transform="translate(59.683 55.17)"/>
        <path id="Rectangle_66" d="M0 0h.908v6.634H0z" class="cls-5" data-name="Rectangle 66" transform="translate(65.515 55.17)"/>
        <path id="Rectangle_69" d="M0 0h.908v6.634H0z" class="cls-5" data-name="Rectangle 69" transform="translate(63.688 55.17)"/>
        <g id="Group_47" data-name="Group 47" transform="translate(20.273 9.865)">
            <g id="Group_45" data-name="Group 45" transform="translate(5.673 .008)">
                <path id="Path_39" d="M361.983 61.716c2.487-.145 4.464-2.519 4.464-5.423s-1.977-5.278-4.464-5.423a5.428 5.428 0 0 1 0 10.845z" data-name="Path 39" transform="translate(-361.983 -50.871)"/>
            </g>
            <g id="Group_46" data-name="Group 46">
                <path id="Path_40" d="M361.983 50.871a5.428 5.428 0 0 1 0 10.845" class="cls-6" data-name="Path 40" transform="translate(-356.31 -50.863)"/>
                <path id="Path_41" d="M358.138 50.866c2.487.144 4.464 2.519 4.464 5.423s-1.977 5.278-4.464 5.423c-.08 0-.163.007-.243.007s-.163 0-.243-.007a5.428 5.428 0 0 1 0-10.845c.08 0 .163-.008.243-.008s.163.003.243.007z" class="cls-6" data-name="Path 41" transform="translate(-352.465 -50.858)"/>
            </g>
        </g>
    </g>
    <g id="Group_49" data-name="Group 49" transform="rotate(32 -56.933 198.01)">
        <text id="OK" class="cls-7" transform="translate(9.317 26.361)">
            <tspan x="0" y="0">OK</tspan>
        </text>
        <g id="Ellipse_11" class="cls-8" data-name="Ellipse 11">
            <circle cx="23.54" cy="23.54" r="23.54" class="cls-9"/>
            <circle cx="23.54" cy="23.54" r="21.54" class="cls-10"/>
        </g>
    </g>
</svg>
