<svg xmlns="http://www.w3.org/2000/svg" width="34" height="34" viewBox="0 0 34 34">
    <path d="M4.98 34h24.04A4.986 4.986 0 0 0 34 29.02V4.98A4.986 4.986 0 0 0 29.02 0H4.98A4.986 4.986 0 0 0 0 4.98v24.04A4.986 4.986 0 0 0 4.98 34zM1.992 4.98A2.992 2.992 0 0 1 4.98 1.992h24.04a2.992 2.992 0 0 1 2.988 2.988v24.04a2.992 2.992 0 0 1-2.988 2.988H4.98a2.992 2.992 0 0 1-2.988-2.988zm0 0" data-name="Path 59"/>
    <path d="M17 26.752A9.753 9.753 0 1 0 7.247 17 9.764 9.764 0 0 0 17 26.752zm0-17.338a7.585 7.585 0 1 1-7.585 7.585A7.594 7.594 0 0 1 17 9.414zm0 0" data-name="Path 60"/>
    <path d="M27.656 9.045a2.7 2.7 0 1 0-2.7-2.7 2.7 2.7 0 0 0 2.7 2.7zm0-3.594a.9.9 0 1 1-.9.9.9.9 0 0 1 .9-.897zm0 0" data-name="Path 61"/>
</svg>
