<svg xmlns="http://www.w3.org/2000/svg" width="33.465" height="25.86" viewBox="0 0 33.465 25.86">
    <path d="M4.9 25.86h23.663a4.944 4.944 0 0 0 4.9-4.973V4.973A4.944 4.944 0 0 0 28.563 0H4.9A4.944 4.944 0 0 0 0 4.973v15.914a4.944 4.944 0 0 0 4.9 4.973zM1.961 4.973A2.966 2.966 0 0 1 4.9 1.989h23.663A2.966 2.966 0 0 1 31.5 4.973v15.914a2.966 2.966 0 0 1-2.941 2.984H4.9a2.966 2.966 0 0 1-2.941-2.984zm0 0" data-name="Path 57"/>
    <path d="M11.586 6.412v13.233l12.246-6.725zm2.035 3.309l6.072 3.227-6.072 3.335zm0 0" data-name="Path 58"/>
</svg>
